<!-- Generator: Adobe Illustrator 21.1.0, SVG Export Plug-In  -->
<svg fill="#FFFFFF" version="1.1"
	 xmlns="http://www.w3.org/2000/svg" xmlns:xlink="http://www.w3.org/1999/xlink" xmlns:a="http://ns.adobe.com/AdobeSVGViewerExtensions/3.0/"
	 x="0px" y="0px" width="618.3px" height="292px" viewBox="0 0 618.3 292" style="enable-background:new 0 0 618.3 292;"
	 xml:space="preserve">
<defs>
</defs>
<path d="M617.9,153.2c0,1.1-0.1,2.1-0.1,3.2c-0.4,0.8,0,1.8-0.3,2.6c-1.5,11.5-4.2,22.7-8.8,33.3c-0.6,1.4-1.2,2.7-1.8,4.1
	c0,1.7-1,3-2,4.2c-3.3,5-6.1,10.4-9.9,15c-4.7,5.7-10,11-15.8,15.7c-7.5,6-15.6,11.2-24.3,15.2c-8.5,4-17.5,6.8-26.9,8.4
	c-3.8,0.6-7.6,1.1-11.4,1.6c-0.8,0.3-1.8-0.1-2.6,0.3c-1.4,0.1-2.8,0.1-4.2,0.2c-2.1,0.4-4.2-0.2-6.3,0.3c-1.4,0-2.9,0-4.6,0
	c3.4-5.7,6.2-11.5,7.1-18.1c0.4-0.8,0-1.7,0.4-2.5c0.2-1.8,0.2-3.5,0-5.3c-0.4-0.8,0-1.8-0.4-2.6c-0.6-2.3-0.8-4.6-1.6-6.9
	c-2.3-7-6.4-12.8-11.6-17.9c0.3-1.2,1.3-0.6,2-0.7c3.6-0.2,7.2,0.2,10.7-0.2c7.1,0.2,13.6-1.6,20.1-4.5c5.2-2.3,9.8-5.4,13.6-9.5
	c6.7-7.1,10.5-15.5,12.3-25.1c0.5-2.8,1-5.6,1.4-8.4c0.5-1.1,0-2.3,0.4-3.5c0.3-3.7,0.3-7.4,0-11.1c-0.4-1.1,0.1-2.4-0.3-3.5
	c-1.3-10.9-3.8-21.2-10.7-30.1c-4.5-5.9-10.2-10.4-16.9-13.4c-7.1-3.1-14.5-4.5-22.2-4.4c-4.7-0.5-9.4-0.2-14.1-0.2
	c-3.8,0-7.6-0.4-11.4,0.2l0,0c-0.8,1,0.3,2.3-0.7,3.3c-5.8-1-11.5-1.3-17.4-0.9c-10.5,0.7-20.6,2.6-29.9,7.8
	c-0.4,0.2-0.7,0.4-1.3,0.2c0.7-1.2,1.4-2.2,2.4-3.2c0.9-0.9,1.8-2,2.7-2.9c0.4-0.8-0.1-0.6-0.6-0.5c-5.9,2-11.4,5-16.7,8.3
	c-1.2-0.3-0.6-1.3-0.7-2c-0.2-3.6,0.2-7.2-0.2-10.8c-0.3-7.1-2.6-13-8.6-17.4c-9.1-6.7-17.2-14.6-23.3-24.2
	c-4-6.3-6.6-13.3-8.4-20.5c-0.4-1.5-0.1-3.1-0.1-4.8c12.4,8.6,26.2,12.4,41.1,12.5c1.1,0.5,2.4,0,3.5,0.3c2.2,0,4.4,0.1,6.6,0.1
	c2.6,0.5,5.2-0.1,7.8,0.3c8.9,0.1,17.7,0.2,26.6,0.2c14.3,0,28.6,0,42.9,0c3,0,6,0.6,9.1,0.4c1,0.5,2,0,3,0.3c0.8,0,1.5,0.1,2.3,0.1
	c0.8,0.4,1.7,0,2.5,0.4c15.1,1.9,29.4,6.2,42.7,13.5c8.8,4.9,16.7,11,24,17.9c1.2,0.1,1.6,1,1.9,2c4.9,5.8,9.7,11.7,13.6,18.3
	c4.1,7,7.4,14.4,10,22.1c2.4,7.3,3.7,14.8,4.9,22.4c0.4,1-0.1,2,0.4,3c0,1.1,0.1,2.2,0.1,3.3C618.1,143.9,618.1,148.6,617.9,153.2z"
	/>
<path d="M270.7,209.5c0.5,7.6,3.5,14.2,8.1,20.2c2.3,3,5,5.5,8.3,7.4c9.3,5.3,18.9,6.4,28.8,2c9.1-4,16.5-10.2,22.9-17.7
	c3.1-3.6,6-7.3,8.4-11.3c0.7-1.2,1.4-0.9,2.2-0.3c5,4.1,10,8.2,14.9,12.3c2.7,2.3,5.4,4.7,8.1,7.1c1.2,1,1.3,1.8,0.6,3.2
	c-4.8,8.6-9.8,16.9-16.3,24.3c-12.6,14.6-27.9,24.7-47,28.4c-2.6,0.5-5.2,0.8-7.7,1.2c-1.1,0.4-2.4-0.1-3.5,0.4c-3.3,0-6.5,0-9.8,0
	c-0.8-0.4-1.7,0-2.5-0.3c-8.8-0.8-17.2-3.3-25-7.2c-4.7-2.3-9.2-5.1-13.2-8.7c-4-3.6-7.5-7.7-10.8-11.8c-1-1.2-2.2-3.1-4-2.5
	c-2,0.7-1.8,2.7-1.8,4.5c0,1,0,2.1,0.6,3c0.4,0.8,0.9,1.5,0.5,2.4c0.1,0.9,0.7,1.8,0.1,3.1c-2.6-2.4-4.8-5.1-6.8-7.8
	c-4.4-5.8-8-12.3-10.3-19.2c-1.5-4.5-2.7-9.1-3.2-13.9c-0.2-2.3-0.2-4.5-0.6-6.8c-0.2-3.5-0.2-7,0-10.5c0-1.1,0.1-2.1,0.1-3.2
	c0.4-0.8,0-1.8,0.4-2.6c0.4-6.8,2-13.4,4.3-19.8c0.4-1.2,0.5-2.5,1-3.8c0.4-1,0.7-2.4-0.5-3c-1.1-0.6-2.5-0.6-3.6,0.3
	c-1.5,1.3-2.8,2.7-4.2,4.1c-0.3,0.3-0.5,0.6-1.2,0.4c0.5-3.3,1-6.6,2-9.7c2.8-8.6,7-16.4,12.9-23.2c3.6-4.2,7.3-8.3,11.8-11.7
	c1.3-1,1.7-0.4,2.5,0.2c0.6,1.1,0.3,2.2,0.2,3.3c-0.7,3.8-1.7,7.5-2.1,11.3c-0.5,1.1,0.1,2.4-0.4,3.5c0,1.1-0.1,2.1-0.1,3.2
	c-0.5,1.1,0,2.4-0.3,3.5c0,1.1-0.1,2.1-0.1,3.2c-0.5,1.1,0,2.4-0.3,3.5c0,0.8-0.1,1.6-0.1,2.4c0.3,0.7,0.6,1.3,1.4,0.5
	c4.2-4.6,8.2-9.2,12.6-13.7c5.2-5.4,11.6-9.2,18.2-12.7c0.3-0.2,0.7-0.8,1.2-0.3c0.4,0.5-0.1,0.9-0.2,1.3c-1.3,5.6-2.4,11.3-3,17
	c-0.1,0.7-0.9,1.7,0.7,1.7c4.2-3,8.4-6,12.7-8.8c2.3-1.6,5-2.1,7.8-2.4c1-0.2,1.9-0.2,2.8,0c1,0.1,1.9,0.8,3.3,0.6
	c-2.3,2.7-4.4,5.1-6.4,7.7c-7,8.9-11.9,18.9-14.1,30.1c-0.2,0.9-0.1,1.9-0.1,2.9c-0.4,0.8,0,1.7-0.3,2.6c-0.3,2.6-0.3,5.1,0,7.7
	C270.7,207.8,270.2,208.7,270.7,209.5z"/>
<path d="M499.2,232.1c0,1.3,0,2.6,0,3.9c-0.4,0.8,0,1.8-0.4,2.6c-1.1,6.6-3.9,12.5-8.1,17.4c-3.4,4-7.8,7.1-12.7,9.5
	c-7.3,3.6-14.9,4.5-22.9,4.3c-1-0.3-1-0.3-1.1,0.5c5.2,3.9,11.1,5.9,17.7,6.3c1.8,0.3,3.7,0.3,5.5,0c1.4,0.3,2.7-0.6,4.8-0.4
	c-9.5,10.1-21,14.2-33.8,15.3c-1.7,0.2-3.5,0.2-5.2,0c-7.6-0.4-14.5-2.4-20.7-6.9c-5.9-4.2-10.1-9.8-13.1-16.3
	c-1.6-3.5-3-7.1-3.2-11c-0.2-0.5-0.3-1-0.6-1.4c-0.2-0.1-0.5-0.1-0.8-0.2c-2.9,2.8-4.2,6.5-4.7,10.4c-0.7,5.9,0.3,11.5,3.9,16.5
	c0.3,0.4,1.1,0.6,0.4,1.3c-0.5,0.5-1.1,0.4-1.6,0.1c-7.2-3.7-13.2-8.6-16.4-16.5c-1-2.4-1.5-4.8-1.9-7.4c-0.4-1.3,0.1-2.7-0.4-4
	c0-0.4,0-0.7,0-1.1c0.5-1.6-0.1-3.3,0.3-5c0-1.2,0.1-2.5,0.1-3.7c0.3-2.7,0.3-5.3,0-8c-0.6-6.5-3.4-11.6-8.4-15.9
	c-5.5-4.6-10.9-9.2-16.3-13.7c-4.6-3.8-9.3-7.3-13.6-11.4c-4.4-4.1-7.4-9.2-7.8-15.5c-0.4-1,0.1-2.1-0.4-3.1
	c-0.1-4.9-2.5-8.5-6.3-11.4c-4.1-3.1-8.6-5.9-10.6-10.9c-1.4-3.5-1.3-7.2,0.1-10.8c0.2-0.4,0.5-0.3,0.6,0.1c0.2,0.6,0,1.2,0.3,1.8
	c0.4,3.9,4.2,7.6,9.1,8.9c1.8,0.5,3.7,0.8,5.6,0.6c0.8,0.4,1.8,0,2.6,0.3c1.2,0.2,2.3,0.4,3.5,0.7c5.1,1.2,6.9,5,7.6,9.7
	c0.1,0.4,0,0.8,0.1,1.2c1.7,7.2,3.4,8.3,12.2,7.8c0.8,0.4,1.7,0,2.5,0.3c6,0.6,10.4,4.3,14.8,8c10.5,8.7,21.1,17.4,31.7,26
	c2.5,2,5.5,3.4,9,3.2c0.9,0.3,1.8,0.3,2.7,0c5.3-0.9,9.7-4.1,11.4-10.2c0.2-0.7,0.8-1.4,0.5-2.2c0.4-1.1,0.3-2.1,0-3.2
	c-0.2-1.2-0.5-2.3-0.7-3.6c12,5.8,17.9,29.3,4.3,41.1c1,0.1,1.7,0.1,2.4,0.2c1,0.4,2.1,0,3.1,0.3c0.2,0,0.3,0,0.5,0
	c1.1-0.4,2.4,0.1,3.5-0.3c7.9-0.4,14.8-3.4,19.3-9.8c5.6-7.9,3.4-16.9-3.7-23c-2.3-2-4.9-3.3-7.5-4.8c9.1-0.6,17.4,1.4,25.1,6.1
	c7.7,4.7,13,11.5,16,20c0.4,0.7,0.9,1.5,0.5,2.4c-0.2,0.9,0.4,1.6,0.5,2.4C499.2,230.4,498.8,231.3,499.2,232.1z"/>
<path d="M297.7,120.6c0.1,0.1,0.3,0.1,0.4-0.1c1.4-1,2.9-0.9,4.5-0.9c0.5,0.1,1.1,0.1,1.3,0.2c-0.4-0.2-1.2-0.2-1.9-0.2
	c-1.3-0.1-2.7,0.6-3.8-0.5c-1.3-0.2-2.6,0-3.8,0.1c-0.8,0.5-1.7-0.1-2.5,0.4c-10.3,1-19.3,4.6-27.2,12.3c4.8,0.7,9.1,1.3,13.6,2.5
	c-13.3,4-24.7,10.5-34.8,19.3c-0.9,0-0.8-0.4-0.5-1c-0.4-0.6-0.5-1.2,0.1-1.8c0.4-0.6-0.1-1.5,0.4-2.1c0.3-1.9,0.7-3.8,1-5.7
	c0.4-1.7,0.3-3.4,0-5.1c-1-6.2-7.7-9-13.3-9c-1.1-0.3-2.1-0.3-3.2,0c-2.5-0.3-5,0.7-7.5,0.5c-1,0.4-1.4,0.2-0.9-0.9
	c6.7-5.9,14.8-9.5,22.4-13.9c2.2-1.2,4.4-2.4,6.5-3.8c3.7-2.5,4-5.6,1.5-9.3c-2.9-4.2-6.5-7.6-10.8-10.2c-0.4-0.2-0.6-0.6-1.1-1
	c7.6-0.3,14.9,0.1,22.5,2.1c-3.8-7-4.8-13.9-2.9-21.7c0.9,1.6,1.6,2.8,2.4,4c3.7,5.8,9.1,9.8,14.8,13.4c6.1,3.8,12.6,7,18.5,11.1
	c3.5,2.5,6.7,5.3,9.1,9.1c0.6-1.3-0.2-2.3-0.7-3.2c-2.8-5.7-7.2-10.1-12.5-13.7c-0.9-0.6-1.7-1.1-2-2.3c-2.8-11.3-1.8-22.3,3-33
	c0.3-0.6,0.6-1.3,1.5-1.7c0.1,2.9,0.2,5.7,0.9,8.5c2.2,8.3,7.2,14.8,13,20.9c6.2,6.5,13.1,12.2,19.7,18.3c4.3,4,8.4,8.1,11.7,13
	c0.2,0.3,0.4,0.5,1,0.4c-1.1-2.9-2.7-5.4-4.4-7.8c-4.4-6.2-10.1-11.3-15.7-16.5c-2.9-2.6-5.7-5.4-8.6-8c-2.6-2.3-3.8-5.1-4.1-8.6
	c-0.4-5,0.3-9.9,2.1-14.6c0.4-0.9,0.7-1.9,1.7-2.8c0.1,12.5,7,21.3,14.9,29.5c6.4,6.7,13.7,12.5,20,19.3c5.2,5.6,9.4,11.8,11.1,19.3
	c0.6,2.9,1.2,5.8,0.4,8.7c-0.3,0.9,0,1.5,1,1.8c2.8,0.9,4.3,3.1,5.2,5.7c0.5,0.4-0.4,1.7,1,1.5c3.7-1.6,6.1-4.6,8.4-7.7
	c0.7,2.5,0.3,5.1,0.2,7.6c-1.2,7.8-4.1,14.9-9.4,20.9c-1.4,1.6-3,2.8-4.7,4c-0.5,0.3-0.9,0.8-1.5,0.5c-0.6-0.4-0.4-1.2-0.2-1.7
	c0.5-1.4,0.5-2.6,0.1-4.1c-1.7-6.3-6.2-9.9-12.7-10c-1.7,0-3.4-0.9-5.1-0.4c-1.2-0.3-2.5-0.3-3.7,0c-0.6-0.2-1.7,0-0.7-1.2
	c1.6-1.8,2.3-4.1,2.8-6.3c0.8-3.6-0.3-5.1-4.9-6c-3.7-0.7-7.6-0.7-11.3-0.3c-1,0.3-2-0.1-3,0.3c-5,0.3-9.9,1.1-14.7,2.5
	c-0.4,0.4-0.9,0.6-0.9,0.6c0.2,0,0.8-0.1,1.4,0.3c3.4,0,6.8,0.6,10.1,1.3c1.1,0.3,1.7,0.5,1,1.8c-1.6,2.9-2.6,6.1-3.1,9.4
	c-0.2,1.2-0.2,2.2,0.1,3.2c0.8,3,2.1,3.6,4.7,2c0.8-0.5,1.5-0.9,2.4-1.5c-0.4,3-1.7,5.7-1.3,8.6c-0.3,0.9-0.3,1.8,0,2.7
	c-0.2,2.4,1.3,3.1,3.3,3.3c1.2,0.3,2.4,0.3,3.6,0c1.9-0.3,2,0.4,1.1,1.8c-2.3,3.4-5.4,5.9-8.8,8.1c-4.2,2.5-8.6,4-13.4,4.6
	c-0.7,0.1-1.7,0.8-2-0.6c3.1-2.7,6.4-5.2,7.9-9.6c-1.8,0.3-3.3,1.3-5,1.1c-0.8,0.4-1.8-0.1-2.6,0.4c-1-0.3-2.1,0.2-3.2-0.5
	c1.8-1.9,3.6-3.7,5-5.9c3.4-5.5,2.9-14.6-1.8-19c-2.9-2.7-6.6-4.5-10.7-4.8c-2-0.4-4-0.3-6.1,0c-3.5,0-6.5,1.5-9.7,3
	c2-6.7,9.1-15.2,17.9-19.5c-4.2-1.9-8.8-2.3-13.6-3.7c5.5-4.1,11.6-5.4,17.5-7.2C296.3,120.5,297.1,121,297.7,120.6z"/>
<path d="M313.4,1c9.9,1.5,19.4,4.3,27.7,10.2c11.7,8.3,18.5,19.7,20.8,33.7c0.4,2.7,0.7,5.3,1.1,8c0.2,1.3,0.2,2.5,0,3.8
	c-1.3,14.9-6.8,28.2-15.1,40.4c-0.9,1.3-1.1,1.2-2.5,0.1c-2.6-2.2-5-4.6-7.5-6.9c-5.5-5.3-11.1-10.6-15.7-16.8
	c-0.8-1.1-0.2-1.7,0.2-2.6c3.9-8.4,5.2-17.1,2.8-26.1C322.7,34.4,315,28.2,304.9,28c-9.5-0.2-18.2,6.6-21.2,16.5
	c-0.2,0.5-0.4,1.1-0.4,1.6c-0.1,8.1-3.8,15.6-4.6,23.6c-0.4,3.7-0.4,7.5-0.4,11.2c-0.8,0.4-1.2-0.3-1.7-0.6
	c-6.3-3.9-11-9.1-13.5-16.2c-1.5-4.3-3.5-8.4-5.2-12.6c-0.3-0.7-0.6-1.4-1.3-2.7c-2.7,11.5-8.6,21.5-7.6,33.2
	c-4.3-5.5-5.9-11.9-6.6-18.6c-0.4-1.1,0.1-2.4-0.4-3.5c0-2.3,0-4.6,0-6.8c0.4-1,0-2.1,0.3-3.1c0.7-10.1,4.6-19.1,10.7-27
	c8.2-10.6,19.1-17.3,32.1-20.5c4.7-1.1,9.5-1.6,14.4-2c2.2-0.2,4.5-0.2,6.7,0c1.6,0,3.1,0.1,4.7,0.1C311.7,1,312.6,0.6,313.4,1z"/>
<path d="M441.5,132c-9.4,1-17.2,5.1-23.3,12.3c-10.1,11.9-18.2,25.1-24.8,39.2c-0.9,2-1.7,1.9-3.1,0.7c-3.5-3-7.2-5.8-10.7-8.8
	c-1.9-1.6-4-2.6-6.3-3.4c-1.6-0.6-1.4-1-0.5-2.1c4.2-5,8.3-10.1,12.9-14.8c7.7-8,16.1-15.2,25.6-21c9.7-5.9,20-10.2,31.3-11.6
	c0.8-0.1,1.7-0.4,2.5-0.8c-1.5,0-3,0-4.6,0c-1,0.4-2-0.1-3,0.3c-5.6,0.1-11,1.8-16.2,3.6c-9.1,3.2-17.5,7.6-25.1,13.5
	c-3.9,3-7.8,6-10.9,9.9c-0.3,0.4-0.6,1.3-1.3,1c-1.1-0.5-0.1-1.2,0.1-1.8c2.5-8,7.1-14.7,12.1-21.2c4.9-6.4,10.6-12,17.3-16.5
	c0.7-0.5,1.3-1.1,2.5-0.9c-1,1.5-1.9,3-2.7,4.5c-0.7,1.2-1.3,2.4-1.7,3.6c-0.3,0.8-0.5,1.8,0.2,2.5c0.8,0.7,1.7,0.5,2.6,0.1
	c3.2-1.4,5.6-3.8,8.3-5.9c6.5-5.3,12.9-10.7,21.4-12.7c0.6-0.1,1.2-0.2,1.9-0.3c0.6-0.2,1.4-0.7,1.5,0.5c-2.9,1.8-6.1,3.3-8.1,6.2
	c-0.7,1.1-1.5,2.1-0.6,3.5c0.9,1.4,2.3,1.1,3.5,0.8c4.6-1.3,9.1-2.9,13.8-3.9c10.2-2,20-0.6,29.5,3.4c7.9,3.3,15,7.8,21.2,13.7
	c0.5,0.5,1.7,0.8,1.1,1.7c-0.5,0.9-1.5,0.5-2.3,0c-0.4-0.2-0.9-0.1-1.4-0.1c-1-0.4-2.1,0-3.1-0.3c-1.1,0-2.3,0-3.4,0
	c-1.1,0.3-2.4-0.1-3.5,0.3c-10.2,1.1-20.1,2.9-29,8.6c-1.1,0.7-2,1.1-3.5,0.1c-3.3-2.2-7-3.4-11-3.9c-0.8-0.4-1.7,0-2.5-0.4
	c-1.3,0-2.6,0-3.9,0C443.5,132.1,442.5,131.5,441.5,132z"/>
<path d="M476.7,194.1c-2.9-0.8-5.8-1.8-8.8-2.3c-2-0.3-3.9-1.1-6-0.7c-1.5-0.3-3-0.3-4.6,0c-1.6,0-3.1,0.1-4.7,0.1
	c-1,0.4-2-0.1-3,0.3c-1.2,0.1-2.5,0.1-3.7,0.2c-1.1,0.1-2.2,0.3-3.3-0.1c-6.2-5.1-13.7-8.4-20.3-12.8c-0.3-0.2-0.8-0.2-1.1,0
	c-0.5,0.3,0,0.7,0.1,1c2,5.6,4,11.1,6.1,16.7c1,2.7,1.1,5.2-0.5,7.7c-2.2,3.4-7.5,3.9-11.3,0.4c-0.2-11-0.1-22.1-0.1-33.1
	c0-3.8-0.2-7.7,0.1-11.5c4.8-6.9,9.3-14.1,17.3-18c3.1-1.5,6.4-2.1,9.7-2.8c2.4-0.2,4.8-0.2,7.2,0c4.7,0.8,8.9,2.7,12.4,6
	c2.4,2.2,3.9-0.4,4.9-1.4c2.8-3,6.4-4.2,10.1-5.5c0.4,0.7,0.2,1.6,0.2,2.3c0,17,0,34,0,50.9C477.3,192.4,478,193.6,476.7,194.1z"/>
<path d="M454.1,215.9c0-1.5-0.1-3.1-0.1-4.6c-0.4-1.1,0.1-2.4-0.4-3.5c0-1.2,0-2.2,1.8-1.3c2.9,1.5,5.4,3.2,6.9,6.2
	c2.4,4.7,0.8,10.1-4,12.9c-1.7,1-3.4,1.9-5.6,2.4c0.5-2.7,1.3-5.2,1.3-7.8C454.5,218.7,454.5,217.3,454.1,215.9z"/>
<path d="M40.9,92.5c0.4,0.8,0.2,1.7,0.2,2.6c0,41.1,0,82.2,0,123.3c0,0.9,0.2,1.8-0.2,2.6c0-15.4,0-30.9,0-46.3
	C40.8,147.4,40.8,120,40.9,92.5z"/>
<path d="M466.2,99.5c3.4-1.6,6.9-2.7,10.4-4c1,1.3,1,4.5,0,5.9c-3.2-0.4-6.3-1.3-9.5-1.1C466.9,100,465.9,100.5,466.2,99.5z"/>
<path d="M476.7,194.1c0.9-0.3,0.7-1,0.7-1.6c0-17.7,0-35.5,0-53.2c0-0.3-0.1-0.6-0.2-0.9c1.1,0.2,0.5,1,0.5,1.4
	c0,17.6,0,35.1,0,52.7C477.6,192.9,478.5,194.4,476.7,194.1z"/>
<path d="M415.6,159.9c0,14.9,0,29.7,0,44.6c-0.5-0.6-0.3-1.4-0.3-2.1c0-13.5,0-27,0-40.5C415.2,161.3,415,160.6,415.6,159.9z"/>
<path d="M477.7,89.9c0.1-0.1,0.2-0.3,0.3-0.3c8.2,0,16.5,0,24.7,0c0.1,0,0.3,0.1,0.4,0.2C494.7,89.8,486.2,89.8,477.7,89.9z"/>
<path d="M617.9,153.2c0-4.6,0-9.3,0-13.9C618.5,143.9,618.5,148.6,617.9,153.2z"/>
<path d="M415.3,89.1c0.7,3.5,0.1,7,0.4,10.4c0,0.8-0.5,1.8,0.5,2.4c-1.5,0.3-0.9-0.9-0.9-1.4C415.2,96.7,415.2,92.9,415.3,89.1z"/>
<path d="M505.6,203.2c-3.4,0.7-6.9,0.2-10.3,0.4c-0.8,0-1.8-0.4-2.4,0.5c-0.3-1.5,0.9-0.9,1.5-0.9
	C498.1,203.1,501.8,203.1,505.6,203.2z"/>
<path d="M604.8,200.6c0.4-1.5,1.3-2.9,2-4.2c0.3,0.1,0.7,0.4,0.7,0.4c-0.6,1.4-1.3,2.8-2.1,4.2C605.4,201.2,604.9,200.9,604.8,200.6
	z"/>
<path d="M302.9,120c-1.6,0.2-3.2,0.4-4.8,0.5c0-0.5,0-1,0-1.4c1.4,0,2.9,0.1,4.3,0.1C302.7,119.4,303.1,119.5,302.9,120z"/>
<path d="M204.4,221.5c-0.5-3.8-0.6-7.6,0-11.4C204.4,213.9,204.4,217.7,204.4,221.5z"/>
<path d="M211.6,210.8c0,3.5,0,7,0,10.5C211,217.8,211,214.3,211.6,210.8z"/>
<path d="M59.5,35.5c-2.6,0-5.2,0.2-7.8-0.3C54.3,35.3,56.9,34.7,59.5,35.5z"/>
<path d="M433.9,35.5c-2.6,0-5.2,0.2-7.8-0.3C428.7,35.3,431.3,34.7,433.9,35.5z"/>
<path d="M384.5,238.5c0.6,2.7,0.5,5.3,0,8C384.5,243.8,384.5,241.1,384.5,238.5z"/>
<path d="M476.7,101.5c1.1-2,1.1-4,0-5.9c0.1-0.1,0.4-0.2,0.4-0.2c0.8,0.8,0.8,5.4,0,6.3C477,101.7,476.8,101.5,476.7,101.5z"/>
<path d="M371.1,143.1c0-2.5,0.3-5.1-0.2-7.6C372,138,371.7,140.5,371.1,143.1z"/>
<path d="M449.8,139.2c-2.4,0-4.8,0-7.2,0C445,138.5,447.4,138.5,449.8,139.2z"/>
<path d="M306.2,0.5c-2.2,0-4.5,0-6.7,0C301.8-0.2,304-0.2,306.2,0.5z"/>
<path d="M503.4,257.3c2.1-0.5,4.2-0.4,6.3-0.3C507.7,257.8,505.5,257.2,503.4,257.3z"/>
<path d="M588.9,70.3c-0.8-0.5-1.4-1.2-1.9-2C588.8,67.7,588.9,67.8,588.9,70.3z"/>
<path d="M283.5,148.3c2-0.6,4-0.5,6.1,0C287.5,148.4,285.5,148.4,283.5,148.3z"/>
<path d="M443.1,291.5c1.7,0,3.5,0,5.2,0C446.6,292.1,444.8,292.2,443.1,291.5z"/>
<path d="M477.3,276.6c-1.8,0.6-3.7,0.5-5.5,0C473.6,276.6,475.4,276.6,477.3,276.6z"/>
<path d="M384.4,250.2c0,1.7,0.1,3.3-0.3,5C384.2,253.5,383.6,251.8,384.4,250.2z"/>
<path d="M244.4,138.1c0.6,1.7,0.5,3.4,0,5.1C244.4,141.5,244.4,139.8,244.4,138.1z"/>
<path d="M232.4,266c-0.2-0.8-0.8-1.5-0.5-2.4C233.2,264.5,233.4,265.2,232.4,266z"/>
<path d="M235.2,173.4c-0.1,0.8-0.8,1.3-1.5,1.8c-0.3-0.8,0-1.6,0.1-2.3C234.2,173,234.7,173.2,235.2,173.4z"/>
<path d="M498.3,227.1c-0.2-0.8-0.8-1.5-0.5-2.4C498.9,225.3,499.6,226,498.3,227.1z"/>
<path d="M131.8,257.3c1.5-0.5,3-0.3,4.5-0.3C134.9,257.7,133.3,257.2,131.8,257.3z"/>
<path d="M300,186.8c0.5,0.8,1.3,0.3,2,0.6c-0.7,0.6-1.5,0.4-2.3,0.5c-0.4,0-0.9,0.1-0.7-0.6C299.1,186.7,299.6,186.8,300,186.8z"/>
<path d="M457.3,191.1c1.5-0.5,3-0.5,4.6,0C460.4,191.1,458.8,191.1,457.3,191.1z"/>
<path d="M219.4,128.8c0,0.6,0.4,0.9,0.9,0.9c-0.7,0.6-1.4,0.5-2.2,0.4C218.3,129.4,218.8,129,219.4,128.8z"/>
<path d="M454.1,215.9c0.4,1.4,0.4,2.8,0,4.2C454.1,218.7,454.1,217.3,454.1,215.9z"/>
<path d="M302.4,142.1c-0.8,0-1.6,0-2.7,0c0.9-0.6,1.5-1,2.3-0.9C302.1,141.5,302.3,141.8,302.4,142.1z"/>
<path d="M384.1,256.2c0.4,1.3,0.3,2.7,0.4,4C383.6,258.9,384.2,257.5,384.1,256.2z"/>
<path d="M363,56.7c0-1.3,0-2.5,0-3.8C363.6,54.2,363.6,55.4,363,56.7z"/>
<path d="M494.3,127.2c1.1-0.5,2.3-0.4,3.5-0.3C496.6,127.6,495.4,127.2,494.3,127.2z"/>
<path d="M323.2,172.9c-1.2,0.5-2.4,0.6-3.6,0C320.8,172.9,322,172.9,323.2,172.9z"/>
<path d="M233.9,170.5c-0.1-1.2-0.1-2.4,0.3-3.5C234.1,168.1,234.6,169.4,233.9,170.5z"/>
<path d="M40.7,226.2c0.1,1,0.1,2-0.4,3C40.7,228.2,39.4,227,40.7,226.2z"/>
<path d="M242,59.9c0.5,1.1,0.4,2.3,0.4,3.5C241.5,62.3,242.1,61.1,242,59.9z"/>
<path d="M476.9,93.2c0.8-1-0.1-2.3,0.7-3.3C477.3,91,478.2,92.3,476.9,93.2z"/>
<path d="M442.6,191.6c1.1,0,2.2,0.1,3.3,0.1C444.8,192.2,443.7,192.3,442.6,191.6z"/>
<path d="M447.4,101.9c-0.3-0.6-1-0.4-1.5-0.5c0.8-0.5,1.7-0.5,2.9-0.4C448.1,101.4,447.8,101.7,447.4,101.9z"/>
<path d="M453.7,207.8c0.5,1.1,0.4,2.3,0.4,3.5C453.2,210.2,453.7,208.9,453.7,207.8z"/>
<path d="M199.1,209.3c-0.1,0.2-0.2,0.4-0.3,0.6c-0.3,0.4-0.5,0.1-0.5-0.2c0-0.8-0.1-1.7,0.4-2.5
	C198.8,207.9,198.5,208.7,199.1,209.3z"/>
<path d="M234.3,163.7c0-1.2-0.1-2.4,0.3-3.5C234.6,161.4,235.1,162.6,234.3,163.7z"/>
<path d="M448.5,236.3c-1.1,0.5-2.3,0.4-3.5,0.3C446.1,235.9,447.3,236.4,448.5,236.3z"/>
<path d="M298.4,286.6c1.1-0.5,2.3-0.4,3.5-0.4C300.8,287,299.6,286.5,298.4,286.6z"/>
<path d="M553,137.7c0.5,1.1,0.4,2.3,0.3,3.5C552.6,140.1,553.1,138.9,553,137.7z"/>
<path d="M234.8,157c0-1.2-0.1-2.4,0.4-3.5C235.1,154.7,235.6,155.9,234.8,157z"/>
<path d="M553.4,152.3c0.1,1.2,0.1,2.3-0.4,3.5C553.1,154.6,552.6,153.3,553.4,152.3z"/>
<path d="M333.9,152.2c1.2-0.4,2.5-0.4,3.7,0C336.3,152.2,335.1,152.2,333.9,152.2z"/>
<path d="M45.1,35c-1.2,0-2.4,0.2-3.5-0.3C42.8,34.8,44,34.3,45.1,35z"/>
<path d="M322,147.6c-0.6-0.5,0-1.5-0.8-1.9c0.1-0.3,0.2-0.7,0.4-0.8c0.4-0.2,0.5,0.2,0.5,0.5C322.1,146.2,322.1,146.9,322,147.6z"/>
<path d="M237.2,142.1c-0.1-1.1-0.1-2.2-0.2-3.3C238,139.9,237.8,141,237.2,142.1z"/>
<path d="M419.5,35c-1.2,0-2.4,0.2-3.5-0.3C417.2,34.8,418.4,34.3,419.5,35z"/>
<path d="M204.6,206.9c0-1-0.1-2,0.4-3C204.9,205,205.3,206,204.6,206.9z"/>
<path d="M291.7,119.6c0.8-0.5,1.7-0.4,2.5-0.4C293.6,120.5,292.5,119.3,291.7,119.6z"/>
<path d="M432.9,93.6c0.5-0.5,1.1-0.6,2-0.8c-0.3,0.8-0.7,1.2-1.4,1.3C433.3,94,433.1,93.8,432.9,93.6z"/>
<path d="M141.1,36.5c-1,0-2,0.1-3-0.3C139.1,36.2,140.2,35.7,141.1,36.5z"/>
<path d="M404.6,255.8c0.2-0.4,0.3-1,1-0.7c0.3,0.6,0.4,1.2,0,1.8C405.1,256.7,404.8,256.3,404.6,255.8z"/>
<path d="M515.5,36.5c-1,0-2,0.1-3-0.3C513.5,36.2,514.6,35.8,515.5,36.5z"/>
<path d="M444.5,236.6c-1,0.1-2.1,0.2-3.1-0.3C442.4,236.3,443.5,235.9,444.5,236.6z"/>
<path d="M242.3,50c0,1,0.1,2.1-0.3,3.1C242,52,241.6,51,242.3,50z"/>
<path d="M617.7,136c-0.4-1-0.4-2-0.4-3C618.1,134,617.7,135,617.7,136z"/>
<path d="M316.7,138.8c0.9-0.5,2-0.4,3-0.3C318.7,139.1,317.7,138.7,316.7,138.8z"/>
<path d="M441.5,132c0.9-0.5,2-0.4,3-0.3C443.6,132.4,442.5,132,441.5,132z"/>
<path d="M227.8,129.1c1.1-0.4,2.1-0.4,3.2,0C230,129.1,228.9,129.1,227.8,129.1z"/>
<path d="M288,155.5c-0.9,0-1.9,0-2.8,0C286.1,154.9,287.1,154.9,288,155.5z"/>
<path d="M501.2,126.9c1-0.1,2.1-0.2,3.1,0.3C503.2,127.2,502.1,127.6,501.2,126.9z"/>
<path d="M264.7,166.7c-0.3,0.2-0.6,0.4-0.9,0.6c-0.5-0.8-0.2-1.6,0.2-2.3C264,165.7,264,166.4,264.7,166.7z"/>
<path d="M338,178.9c0.5,1,0.4,2,0.4,3.1C337.6,181,338,180,338,178.9z"/>
<path d="M449.6,191.6c1-0.5,2-0.4,3-0.3C451.7,191.9,450.6,191.5,449.6,191.6z"/>
<path d="M437.6,122c0.9-0.6,2-0.4,3-0.3C439.7,122.3,438.6,121.9,437.6,122z"/>
<path d="M435.4,198.6c0.5,1.1,0.4,2.1,0,3.2C435.4,200.7,435.4,199.6,435.4,198.6z"/>
<path d="M270.7,209.5c-0.5-0.8-0.4-1.6-0.4-2.5C271,207.7,270.6,208.6,270.7,209.5z"/>
<path d="M242.9,154.6c-0.3,0.6-0.7,0.5-1,0.1c-0.4-0.5,0.1-0.8,0.5-1C242.8,153.8,242.6,154.3,242.9,154.6z"/>
<path d="M242.9,154.6c-0.5-0.1-0.4-0.6-0.5-0.9c0.2-0.3,0.4-0.7,0.5-1c0.1,0.4,0.1,0.8,0.5,1C243.2,154,243,154.3,242.9,154.6z"/>
<path d="M243.4,148.9c0,0.7,0,1.4-0.4,2.1C243,150.2,242.1,149.3,243.4,148.9z"/>
<path d="M405.6,256.9c0-0.6,0-1.2,0-1.8c0.6,0.7,0.4,1.5,0.4,2.3C405.9,257.2,405.7,257,405.6,256.9z"/>
<path d="M362.5,143.2c-2.2,0.8-0.6-1.1-1-1.5C362.1,142,361.8,142.9,362.5,143.2z"/>
<path d="M140,256.8c0.8-0.5,1.7-0.4,2.6-0.3C141.8,257.2,140.9,256.8,140,256.8z"/>
<path d="M297.7,120.6c-0.6,0.5-1.3,0.5-2,0.4C296.1,119.8,297,120.6,297.7,120.6z"/>
<path d="M513.9,256.8c0.8-0.4,1.7-0.4,2.6-0.3C515.7,257.2,514.8,256.8,513.9,256.8z"/>
<path d="M212.1,205c0.1,0.9,0.1,1.8-0.4,2.6C211.8,206.8,211.4,205.8,212.1,205z"/>
<path d="M448.3,131.7c0.9,0,1.7-0.1,2.5,0.4C450,132,449.1,132.4,448.3,131.7z"/>
<path d="M198.8,204.5c-0.1-0.9-0.1-1.8,0.3-2.6C199.1,202.8,199.5,203.7,198.8,204.5z"/>
<path d="M454.1,270.3c-0.3-0.2-0.8-0.7-0.6-0.8c0.5-0.3,1.2-0.1,1.7,0.2C454.7,269.8,454.3,269.9,454.1,270.3z"/>
<path d="M212.8,138.8c-0.6,0.5-1.3,0.5-2,0.4C211.2,138.1,212.1,138.8,212.8,138.8z"/>
<path d="M37.9,34.5c-0.9,0.1-1.7,0.1-2.5-0.3C36.3,34.2,37.2,33.9,37.9,34.5z"/>
<path d="M286.1,286.3c0.9,0,1.7-0.1,2.5,0.3C287.8,286.6,286.9,286.9,286.1,286.3z"/>
<path d="M313.4,1c-0.9,0-1.7,0.1-2.5-0.4C311.8,0.6,312.7,0.3,313.4,1z"/>
<path d="M199.8,194c-0.1-0.9-0.1-1.8,0.3-2.6C200.1,192.3,200.5,193.2,199.8,194z"/>
<path d="M423.5,214.2c-0.9,0.4-1.8,0.5-2.7,0C421.7,214.2,422.6,214.2,423.5,214.2z"/>
<path d="M200.3,188.7c-0.1-0.9-0.1-1.8,0.3-2.6C200.6,187,200.9,187.9,200.3,188.7z"/>
<path d="M204.9,226.8c-0.4-0.8-0.4-1.7-0.3-2.6C205.3,225,204.9,225.9,204.9,226.8z"/>
<path d="M199.3,199.3c-0.1-0.9-0.1-1.8,0.3-2.6C199.6,197.5,200,198.5,199.3,199.3z"/>
<path d="M300.3,178.6c0.8-0.4,1.7-0.4,2.6-0.4C302.1,178.9,301.2,178.5,300.3,178.6z"/>
<path d="M365.3,177.1c-0.9,0.1-1.7,0.1-2.5-0.3C363.6,176.8,364.5,176.4,365.3,177.1z"/>
<path d="M506,228.8c0.5,0.8,0.4,1.7,0.4,2.6C505.6,230.6,506,229.7,506,228.8z"/>
<path d="M316.3,169.6c-0.4-0.9-0.4-1.8,0-2.7C316.3,167.8,316.3,168.7,316.3,169.6z"/>
<path d="M499.2,232.1c-0.4-0.8-0.4-1.7-0.4-2.6C499.5,230.3,499.1,231.2,499.2,232.1z"/>
<path d="M270.3,199.3c-0.1-0.9-0.1-1.8,0.3-2.6C270.6,197.6,271,198.5,270.3,199.3z"/>
<path d="M339.4,157.4c-0.9,0-1.8,0.1-2.6-0.3C337.6,157.1,338.6,156.7,339.4,157.4z"/>
<path d="M617.4,158.9c0-0.9-0.1-1.8,0.3-2.6C617.7,157.2,618.1,158.2,617.4,158.9z"/>
<path d="M498.8,238.6c0-0.9-0.1-1.8,0.4-2.6C499.1,236.9,499.5,237.8,498.8,238.6z"/>
<path d="M506.3,236.7c0.1,0.9,0.1,1.7-0.4,2.5C506,238.4,505.6,237.5,506.3,236.7z"/>
<path d="M520.3,37c-0.9,0-1.7,0.1-2.5-0.4C518.7,36.6,519.6,36.3,520.3,37z"/>
<path d="M236.7,107.2c-1.8-4.6-3.8-9.2-6.1-13.6c-13-24.8-33.1-41.3-59.2-50.9c-9.8-3.6-20-5.2-30.3-6.4c-1-0.4-2,0.1-3-0.3
	c-3.1,0.3-6.2-0.4-9.3-0.4c-14.3,0-28.6,0-42.9,0c-8.8,0-17.6-0.2-26.4-0.2c-2.6-0.4-5.2,0.2-7.8-0.3c-2.2,0-4.4-0.1-6.6-0.1
	c-1.2-0.4-2.4,0.1-3.5-0.3c-1.2-0.1-2.4-0.1-3.7-0.2c-0.8-0.3-1.7,0.1-2.5-0.3c-4.9,0-9.7-1-14.5-2.3C14,30,7.7,26.9,1.7,23.1
	c-0.4-0.3-0.8-0.9-1.4-0.5C0,22.6-0.1,23.2,0,23.4c0.7,1.3,0.2,2.7,0.5,3.9c1.7,7.1,4.5,13.8,8.3,20c5.7,9.1,12.8,17,21.7,23
	c8.1,5.5,10.6,13,10.3,22.1c0.4,0.8,0.2,1.6,0.2,2.4c0,41.3,0,82.5,0,123.8c0,0.8,0.2,1.6-0.2,2.4c0.3,1.7,0.1,3.4-0.1,5.1
	c-0.5,1,0.2,2.1-0.4,3c-0.1,0.8-0.2,1.5-0.4,2.3c-0.7,2.9-1.9,5.9-4.2,7.6c-4.9,3.8-10.5,6.7-15.9,9.8c-4.6,2.6-9,5.4-14,8.4
	c1.3,0.1,2,0.1,2.7,0.1c37.7,0,75.5,0,113.2,0c3.4,0,6.7,0,10.1,0c1.5-0.5,3,0.1,4.5-0.3c1.2,0,2.5-0.1,3.7-0.1
	c0.8-0.4,1.7,0,2.6-0.3c3.4-0.5,6.9-1,10.3-1.5c18.7-3,35.2-10.8,50-22.5c2.1-1.7,2.5-3.4,2.1-5.7c-0.4-0.8,0-1.7-0.3-2.6
	c0-0.9-0.1-1.8-0.1-2.7c-0.3-3.8-0.3-7.6,0-11.4c-0.2-1.1,0-2.1,0.1-3.1c0.4-1-0.1-2,0.4-3c-0.2-0.7,0.3-1.5-0.4-2.4
	c-1.8,2.7-3.6,5.2-5.4,7.7c-1.3-0.5-0.4-1.4-0.4-2.1c0-0.9,0.1-1.8,0.1-2.7c0.3-0.8,0-1.8,0.3-2.6c0-0.9,0.1-1.8,0.1-2.7
	c0.3-0.8-0.1-1.8,0.3-2.6c0-0.9,0.1-1.8,0.1-2.7c0.3-0.8-0.1-1.8,0.3-2.6c0-0.9,0.1-1.8,0.1-2.7c0.3-0.8-0.1-1.8,0.3-2.6
	c0-10.2,3.4-19.5,8.2-28.3c3-5.5,6.8-10.5,11.2-15.1c1.7-1.8,3.6-3.5,5.2-5.9c-4.4,0.1-8.3,1.6-12.4,2c-0.6,0.4-1.4-0.1-2,0.4
	c-4.8,1.2-9.7,2.3-14.7,2.7c2.2-2.5,4.5-4.8,6.7-7c4.3-4.2,8.4-8.6,12.9-12.5c5.9-5.3,13.1-8.7,20-12.4
	C237,109.3,237.3,108.7,236.7,107.2z M173.4,176.4c-6.6,15.2-18.7,23.6-34.8,26.2c-11.4,1.8-23,0.7-34.5,1c-1.3,0-1.4-0.6-1.4-1.6
	c0-3.9,0-7.8,0-11.8c0-14.5,0-29,0-43.4c0-18.2,0-36.5,0-54.7c0-1.9,0.4-2.6,2.5-2.5c8.6,0.2,17.3-0.1,25.9,0.3
	c24.1,1.1,40.1,13.8,45.7,37.3C180.8,143.7,180.3,160.4,173.4,176.4z"/>
<path d="M336.9,131.4c-6.3,0.7-10.9-4-13.2-13.3C328.8,119.1,335.4,125.7,336.9,131.4z"/>
<path d="M302.9,120c-0.2-0.3-0.3-0.6-0.5-0.8c0.8-0.2,1.4,0.5,2.3,0.6C304,120.3,303.4,120.1,302.9,120z"/>
</svg>